<svg  width="575" height="159" viewBox="0 0 5750 1590">
  <path fill="#fff" stroke="#000" stroke-linecap="square" stroke-miterlimit="5" stroke-width="44" d="M3868 1190l30 27h730c46-13 62-25 82-31 0 0-28 33 5 31h406c17-1-2-21-5-30-20-66-24-144 8-210l152-314 221-1c51-117 111-238 167-361h-234l99-194h-386c-32 65-64 128-93 194h-201c-110 252-70 170-106 244-63-3-129 18-180 57l-26-45-97 49s166-350 226-493h-371c-81 158-144 320-225 479-15-24-40-47-50-74l-54 3c22-76 38-229-110-220-205 12-241 131-285 260-75 8-158-4-229 12-55-24-126-14-178 13l220-473h-451c-70 91-88 115-133 182 13-59 26-122 33-184h-387c-82 144-143 296-218 443h-403l97-244-175-1 77-196h-371c-20 61-113 253-113 253h-245c70-153-151-418-564-188-135 75-522 355-412 833 63 270 323 366 668 171 42 72 181 75 259 25l14 13 456-1-128 292 396 2 139-291 915-2c24-52 29-57 51-95 19 37 62 77 96 92 61 15 128 22 189-17 94 66 244 47 330-9 39-31 76-68 114-103 6 36 0 64 37 93 49 40 139 44 213 9z"/>
  <path fill="#303f91" d="M829 165c-133 2-230 53-348 140-242 178-353 458-271 720 49 158 197 190 349 176a430 430 0 0 0 262-147c1 35 6 62 20 84 54 82 188 26 249-30 5 18 3 38 17 52l218-4a99 99 0 0 1-19-76l224-481c62-2-1-4 196-3 84-194-11 13 74-178h-192c86-214 15-19 99-229h-197l-112 230c-103-2 15-1-97-1l-74 184h75c-66 133-129 277-200 408-25 17-46 34-76 27-7-4-30-10-25-27 28-92 169-371 169-371H973s21-51-127 263c-11 22-107 89-177 102-20 12-147 9-147-110 0-192 218-529 344-550 70-11-63 145-66 180h155s195-335-67-357l-59-2zm3643 11c-37 0 42 2-114 2 0 0-366 836-469 774-45-27 74-143 123-255 15-35-6-67-35-92-42-35-91 0-139 5 0 0 144-179 66-231-47-32-93-17-146 4-99 39-118 125-131 238-13 108-119 360-210 417 82-180 172-393 172-393l-170-1-24 45c-37-59-43-77-158-44-144 41-404 289-275 459 85 113 218 37 233 28 80 72 220 35 302-22 119-86 161-216 229-337 28 1 49-6 79-2-52 66-220 310-85 360 91 34 159 13 232-92 2 29-6 67 11 93h207c2-11-7-17-11-25-22-51 14-99 38-138 29 58 49 126 104 166l183-1a660 660 0 0 1-128-228l97-43c-14 45-26 106-2 167 26 67 71 110 131 129 76 16 105-2 210-65-11 21 4 28 11 40h226s-18-19-13-30c72-156 44-130 222-521h219c32-63 48-125 81-193l-217-1 96-206h-193c-104 223 4-3-94 204l-208-8-84 201h196c-174 393-184 410-204 428-91 80-199-23-191-46 2 5 296-73 275-206-9-60-25-120-85-132-95-20-196 26-275 87-5 5 1 12-38-59-62 28-134 60-213 89l258-564-89-1zm-1728 10h-245l-452 950 212-1c39-66 69-137 109-198-2 64-18 136-19 198l186 1c47-52 132-162 132-162l-70 161 216 1 309-645 137-302h-265s-277 392-356 494c29-153 106-497 106-497zM1057 417l-74 179h187c86-205-10 21 70-176l-183-3zm741 210l-232 1-157 331c-12 42-20 154 32 187 102 50 169 4 191-14-35 87-75 172-117 256-3 15-24 29-8 46h226l8-5 377-800h-240l-139 293c-16 23-29 57-66 47-15-5-14-19-14-33l139-309zm2935 93c13 0 27 4 36 23 23 51-91 108-118 94-12-17 2-83 52-108 4-2 16-8 30-9zm-1391 33c10 0 14 7 11 22-2 10-6 22-12 36l-22 47-46 83-4 12-16 30c-53 102-114 53-111-10 5-80 105-178 175-213 10-5 18-7 25-7z"/>
  <path d="M5275 1069c39 0 68-31 68-70s-29-70-68-70-69 31-69 70 30 70 69 70zm0-10c-31 0-55-27-55-60 0-32 24-59 55-59s54 27 54 59c0 33-23 60-54 60zm-33-95c9 1 9 1 9 9v50c0 7 0 8-9 9v3h34v-3c-9-1-9-2-9-9v-21h7c11 16 16 33 22 33h16v-2l-14-17-11-16c9-3 16-11 16-20 0-14-11-19-23-19h-38v3zm25 1h7c7 0 12 4 12 15 0 10-3 18-12 18h-7v-33z"/>
</svg>
